<svg width="358" height="163" viewBox="0 0 358 163" fill="none" xmlns="http://www.w3.org/2000/svg">
<path d="M35.9395 149.701H28.4042C28.2911 149.703 28.1807 149.735 28.0845 149.794C27.9884 149.854 27.9103 149.938 27.8585 150.039C26.9996 151.556 25.753 152.817 24.2463 153.694C22.7396 154.57 21.0269 155.031 19.2838 155.028C16.5151 154.795 13.9349 153.531 12.0544 151.485C10.1739 149.44 9.13025 146.763 9.13025 143.985C9.13025 141.206 10.1739 138.529 12.0544 136.484C13.9349 134.439 16.5151 133.174 19.2838 132.941C21.0118 132.917 22.7147 133.357 24.2141 134.217C25.7135 135.076 26.9542 136.323 27.8065 137.826C27.8605 137.925 27.9391 138.008 28.0347 138.067C28.1304 138.127 28.2398 138.16 28.3522 138.164H35.9395C36.0374 138.165 36.1339 138.141 36.2205 138.096C36.3071 138.05 36.3813 137.984 36.4365 137.904C36.4916 137.823 36.5261 137.73 36.5369 137.632C36.5476 137.535 36.5343 137.437 36.4982 137.346C34.955 133.329 32.0544 129.979 28.2995 127.877C24.5446 125.775 20.1723 125.054 15.9413 125.838C11.7102 126.623 7.88739 128.864 5.13598 132.173C2.38456 135.482 0.878174 139.649 0.878174 143.952C0.878174 148.255 2.38456 152.423 5.13598 155.731C7.88739 159.04 11.7102 161.281 15.9413 162.066C20.1723 162.851 24.5446 162.129 28.2995 160.028C32.0544 157.926 34.955 154.576 36.4982 150.559C36.5393 150.466 36.5565 150.364 36.5483 150.263C36.5401 150.161 36.5068 150.064 36.4513 149.978C36.3958 149.893 36.3199 149.823 36.2306 149.775C36.1412 149.726 36.0412 149.701 35.9395 149.701V149.701Z" fill="url(#paint0_linear_1146_30)"/>
<path d="M64.5219 125.497C62.0606 125.432 59.6111 125.86 57.318 126.757C55.025 127.654 52.9348 129.001 51.1708 130.718C49.4068 132.436 48.0048 134.49 47.0475 136.758C46.0901 139.027 45.5969 141.464 45.5969 143.926C45.5969 146.388 46.0901 148.826 47.0475 151.094C48.0048 153.363 49.4068 155.416 51.1708 157.134C52.9348 158.852 55.025 160.199 57.318 161.096C59.6111 161.992 62.0606 162.421 64.5219 162.355C69.3249 162.228 73.8884 160.23 77.2404 156.788C80.5924 153.346 82.4682 148.731 82.4682 143.926C82.4682 139.121 80.5924 134.507 77.2404 131.064C73.8884 127.622 69.3249 125.625 64.5219 125.497V125.497ZM64.5219 154.456C61.7864 154.36 59.1949 153.206 57.2937 151.237C55.3924 149.268 54.3298 146.637 54.3298 143.9C54.3298 141.163 55.3924 138.533 57.2937 136.564C59.1949 134.594 61.7864 133.44 64.5219 133.344C67.2575 133.44 69.8489 134.594 71.7502 136.564C73.6514 138.533 74.714 141.163 74.714 143.9C74.714 146.637 73.6514 149.268 71.7502 151.237C69.8489 153.206 67.2575 154.36 64.5219 154.456Z" fill="url(#paint1_linear_1146_30)"/>
<path d="M121.557 126.03H114.879C114.719 126.03 114.566 126.092 114.451 126.204C114.337 126.316 114.271 126.468 114.268 126.627V148.402L102.121 126.316C102.069 126.22 101.991 126.14 101.898 126.086C101.804 126.031 101.697 126.002 101.588 126.004H94.6631C94.5034 126.004 94.35 126.066 94.2359 126.178C94.1217 126.29 94.0559 126.442 94.0525 126.601V161.199C94.0559 161.359 94.1217 161.511 94.2359 161.622C94.35 161.734 94.5034 161.797 94.6631 161.797H101.341C101.501 161.797 101.654 161.734 101.768 161.622C101.882 161.511 101.948 161.359 101.952 161.199V139.502L114.099 161.511C114.151 161.606 114.228 161.686 114.322 161.741C114.416 161.796 114.523 161.824 114.632 161.823H121.557C121.716 161.823 121.87 161.76 121.984 161.648C122.098 161.537 122.164 161.385 122.167 161.225V126.627C122.164 126.468 122.098 126.316 121.984 126.204C121.87 126.092 121.716 126.03 121.557 126.03V126.03Z" fill="url(#paint2_linear_1146_30)"/>
<path d="M142.331 135.709C142.331 133.032 145.436 131.98 147.645 131.98C151.412 131.98 153.543 133.071 154.141 136.397C154.163 136.543 154.237 136.676 154.349 136.771C154.461 136.867 154.604 136.919 154.751 136.917H161.247C161.33 136.919 161.413 136.904 161.489 136.872C161.566 136.84 161.635 136.793 161.693 136.733C161.75 136.673 161.795 136.602 161.823 136.524C161.851 136.446 161.863 136.363 161.858 136.28C161.273 128.589 154.79 125.497 147.567 125.497C141.071 125.497 134.198 128.979 134.198 136.345C134.198 149.558 154.894 145.089 154.894 152.04C154.894 155.249 150.997 156.249 148.515 156.249C144.786 156.249 141.538 154.456 141.084 150.559C141.065 150.414 140.993 150.281 140.883 150.186C140.773 150.09 140.632 150.038 140.486 150.039H133.639C133.558 150.039 133.478 150.055 133.403 150.087C133.328 150.118 133.26 150.164 133.203 150.222C133.146 150.28 133.101 150.349 133.071 150.425C133.041 150.5 133.027 150.581 133.029 150.663C133.418 158.964 140.473 162.667 148.177 162.667C155.492 162.667 163.027 159.562 163.027 151.143C163.027 137.502 142.331 142.088 142.331 135.709Z" fill="url(#paint3_linear_1146_30)"/>
<path d="M190.986 125.497C187.339 125.495 183.774 126.574 180.74 128.598C177.707 130.622 175.342 133.5 173.944 136.869C172.547 140.237 172.18 143.944 172.89 147.521C173.6 151.098 175.355 154.385 177.932 156.964C180.51 159.544 183.795 161.301 187.372 162.013C190.948 162.726 194.656 162.361 198.025 160.966C201.394 159.571 204.274 157.208 206.301 154.176C208.327 151.144 209.409 147.579 209.409 143.933C209.312 139.076 207.341 134.444 203.907 131.008C200.473 127.571 195.843 125.597 190.986 125.497V125.497ZM190.986 154.456C188.896 154.464 186.851 153.852 185.11 152.697C183.368 151.542 182.008 149.897 181.202 147.969C180.396 146.041 180.18 143.917 180.581 141.867C180.982 139.816 181.982 137.93 183.455 136.448C184.928 134.966 186.808 133.954 188.856 133.54C190.904 133.127 193.029 133.33 194.962 134.124C196.895 134.918 198.549 136.268 199.714 138.003C200.88 139.737 201.504 141.778 201.51 143.868C201.417 146.635 200.28 149.265 198.328 151.229C196.376 153.193 193.753 154.346 190.986 154.456V154.456Z" fill="url(#paint4_linear_1146_30)"/>
<path d="M194.208 112.908C194.106 112.906 194.005 112.931 193.916 112.981C193.826 113.032 193.752 113.105 193.701 113.194L188.284 121.392C188.223 121.483 188.188 121.59 188.182 121.7C188.177 121.81 188.202 121.92 188.254 122.017C188.306 122.114 188.383 122.196 188.477 122.253C188.572 122.309 188.68 122.34 188.79 122.34H193.26C193.354 122.341 193.446 122.318 193.53 122.275C193.614 122.232 193.686 122.17 193.74 122.093L199.885 113.882C199.952 113.792 199.993 113.685 200.003 113.573C200.013 113.461 199.992 113.349 199.943 113.248C199.893 113.147 199.816 113.062 199.722 113.002C199.627 112.942 199.517 112.91 199.405 112.908H194.208Z" fill="url(#paint5_linear_1146_30)"/>
<path d="M236.731 148.662C241.265 147.557 244.89 143.556 244.89 137.502C244.94 136.025 244.695 134.554 244.169 133.173C243.643 131.793 242.846 130.531 241.826 129.462C240.806 128.394 239.583 127.54 238.228 126.95C236.874 126.361 235.415 126.048 233.938 126.03H221.127C220.968 126.03 220.814 126.092 220.7 126.204C220.586 126.316 220.52 126.468 220.517 126.627V161.225C220.52 161.385 220.586 161.537 220.7 161.648C220.814 161.76 220.968 161.823 221.127 161.823H227.805C227.965 161.823 228.118 161.76 228.233 161.648C228.347 161.537 228.413 161.385 228.416 161.225V149.039L236.77 161.563C236.825 161.646 236.901 161.713 236.989 161.759C237.078 161.804 237.177 161.826 237.277 161.823H245.695C245.81 161.826 245.923 161.796 246.021 161.737C246.119 161.678 246.198 161.592 246.248 161.49C246.299 161.387 246.319 161.272 246.306 161.158C246.293 161.045 246.248 160.937 246.176 160.848L236.731 148.662ZM232.625 142.815H229.027C228.865 142.815 228.709 142.751 228.595 142.637C228.48 142.522 228.416 142.367 228.416 142.205V132.812C228.416 132.65 228.48 132.494 228.595 132.38C228.709 132.265 228.865 132.201 229.027 132.201H232.625C233.942 132.265 235.18 132.847 236.068 133.821C236.957 134.795 237.424 136.081 237.367 137.398C237.434 138.069 237.361 138.747 237.155 139.39C236.949 140.032 236.614 140.625 236.169 141.133C235.725 141.641 235.181 142.052 234.572 142.341C233.962 142.631 233.3 142.792 232.625 142.815V142.815Z" fill="url(#paint6_linear_1146_30)"/>
<path d="M289.413 149.701H281.865C281.751 149.701 281.64 149.733 281.544 149.793C281.448 149.852 281.37 149.938 281.319 150.039C280.46 151.556 279.214 152.817 277.707 153.694C276.2 154.57 274.488 155.031 272.744 155.028C269.976 154.795 267.396 153.531 265.515 151.485C263.635 149.44 262.591 146.763 262.591 143.985C262.591 141.206 263.635 138.529 265.515 136.484C267.396 134.439 269.976 133.174 272.744 132.941C274.473 132.917 276.175 133.357 277.675 134.217C279.174 135.076 280.415 136.323 281.267 137.826C281.32 137.926 281.398 138.01 281.494 138.069C281.59 138.128 281.7 138.161 281.813 138.164H289.361C289.461 138.163 289.559 138.138 289.647 138.09C289.735 138.042 289.81 137.974 289.865 137.891C289.92 137.807 289.954 137.711 289.964 137.612C289.973 137.512 289.958 137.412 289.92 137.32C288.374 133.309 285.474 129.965 281.721 127.868C277.969 125.771 273.601 125.054 269.375 125.84C265.149 126.626 261.331 128.866 258.584 132.172C255.836 135.478 254.332 139.641 254.332 143.939C254.332 148.238 255.836 152.401 258.584 155.706C261.331 159.012 265.149 161.252 269.375 162.038C273.601 162.824 277.969 162.107 281.721 160.01C285.474 157.913 288.374 154.57 289.92 150.559C289.96 150.47 289.977 150.372 289.972 150.275C289.966 150.178 289.938 150.083 289.888 149.999C289.838 149.915 289.769 149.844 289.687 149.792C289.604 149.741 289.51 149.709 289.413 149.701V149.701Z" fill="url(#paint7_linear_1146_30)"/>
<path d="M308.148 126.03H301.47C301.133 126.03 300.859 126.303 300.859 126.64V161.225C300.859 161.562 301.133 161.836 301.47 161.836H308.148C308.485 161.836 308.759 161.562 308.759 161.225V126.64C308.759 126.303 308.485 126.03 308.148 126.03Z" fill="url(#paint8_linear_1146_30)"/>
<path d="M338.289 125.497C334.643 125.497 331.079 126.578 328.047 128.604C325.015 130.63 322.652 133.509 321.257 136.878C319.862 140.246 319.496 143.953 320.208 147.529C320.919 151.105 322.675 154.39 325.253 156.969C327.831 159.547 331.116 161.303 334.693 162.014C338.269 162.725 341.975 162.36 345.344 160.965C348.713 159.57 351.592 157.207 353.618 154.175C355.644 151.143 356.725 147.579 356.725 143.933C356.628 139.073 354.655 134.44 351.218 131.003C347.782 127.567 343.148 125.593 338.289 125.497V125.497ZM338.289 154.456C336.2 154.461 334.156 153.847 332.417 152.691C330.677 151.534 329.319 149.888 328.515 147.96C327.711 146.032 327.496 143.909 327.899 141.859C328.301 139.809 329.302 137.924 330.776 136.443C332.25 134.963 334.129 133.952 336.177 133.539C338.225 133.127 340.349 133.331 342.281 134.125C344.213 134.92 345.866 136.27 347.031 138.004C348.196 139.738 348.821 141.779 348.826 143.868C348.732 146.637 347.594 149.269 345.639 151.234C343.684 153.198 341.058 154.349 338.289 154.456V154.456Z" fill="url(#paint9_linear_1146_30)"/>
<path d="M225.207 105.385L224.557 105.048C224.973 105.282 225.207 105.385 225.207 105.385Z" fill="url(#paint10_linear_1146_30)"/>
<path d="M288.634 56.7045C284.865 57.1733 281.04 56.8862 277.383 55.86C209.357 90.3667 231.339 100.89 231.339 100.89C219.607 88.7297 267.652 65.8768 288.634 56.7045Z" fill="url(#paint11_linear_1146_30)"/>
<path d="M226.285 86.1313C226.285 86.1313 230.417 74.8023 269.159 52.0793C267.572 51.0174 266.097 49.7987 264.754 48.4415C244.89 61.0568 215.034 83.1561 223.18 97.6032C223.18 97.6032 229.091 110.595 252.698 111.57C252.724 111.57 214.631 105.671 226.285 86.1313Z" fill="url(#paint12_linear_1146_30)"/>
<path d="M218.529 97.4474C216.021 92.9911 209.85 73.9968 259.402 40.8413C258.787 39.5836 258.27 38.2806 257.856 36.9437C241.395 48.9743 206.329 77.8035 218.529 97.4474Z" fill="url(#paint13_linear_1146_30)"/>
<path d="M214.852 77.011C214.852 77.011 210.11 96.8108 224.115 104.801C220.595 102.657 210.084 94.4072 217.178 74.3996C217.178 74.3996 222.647 57.2501 256.907 33.072C256.583 31.1062 256.466 29.112 256.556 27.1217C244.435 36.6708 218.425 58.9391 214.852 77.011Z" fill="url(#paint14_linear_1146_30)"/>
<path d="M214.527 70.9307C214.527 70.9307 221.972 48.5455 257.297 21.769C258.154 18.0488 259.754 14.54 262 11.4534C247.046 23.1462 219.984 46.7786 212.527 70.1382C212.527 70.1382 198.041 113.155 250.879 113.687C243.578 113.531 203.367 110.894 214.527 70.9307Z" fill="url(#paint15_linear_1146_30)"/>
<path d="M4.51174 102.93H46.9566C47.2716 102.932 47.5839 102.871 47.8754 102.752C48.1669 102.632 48.432 102.457 48.6553 102.234C48.8787 102.012 49.056 101.748 49.1769 101.457C49.2978 101.166 49.3601 100.854 49.3601 100.539V89.0155C49.3601 88.6999 49.2979 88.3873 49.1771 88.0957C49.0564 87.8041 48.8793 87.5392 48.6561 87.316C48.4329 87.0928 48.168 86.9157 47.8764 86.795C47.5848 86.6742 47.2722 86.612 46.9566 86.612H22.4927C22.1776 86.612 21.8657 86.5497 21.5748 86.4288C21.284 86.3078 21.0198 86.1306 20.7977 85.9072C20.5755 85.6839 20.3997 85.4188 20.2804 85.1273C20.161 84.8358 20.1004 84.5235 20.1021 84.2085V23.4449C20.0922 22.8231 19.8417 22.2294 19.4031 21.7885C18.9646 21.3476 18.3723 21.0937 17.7506 21.0804H4.51174C3.89003 21.0937 3.29769 21.3476 2.85919 21.7885C2.42068 22.2294 2.17013 22.8231 2.16019 23.4449V100.526C2.15669 101.156 2.40167 101.762 2.84195 102.212C3.28223 102.662 3.88226 102.92 4.51174 102.93V102.93Z" fill="url(#paint16_linear_1146_30)"/>
<path d="M134.25 99.656L103.069 22.8603C102.894 22.4266 102.595 22.0544 102.209 21.7908C101.823 21.5271 101.367 21.3839 100.899 21.3793H88.8428C88.3645 21.3727 87.8955 21.5106 87.4968 21.7748C87.0981 22.039 86.7884 22.4173 86.6082 22.8603L55.4274 99.656C55.2789 100.021 55.2232 100.416 55.2654 100.808C55.3076 101.199 55.4463 101.574 55.6691 101.899C55.892 102.223 56.1919 102.487 56.542 102.667C56.8921 102.847 57.2814 102.938 57.675 102.93H71.7843C72.2736 102.931 72.7514 102.781 73.1516 102.499C73.5519 102.218 73.8549 101.819 74.0189 101.358L78.813 88.0672C78.977 87.6061 79.28 87.2073 79.6802 86.9257C80.0805 86.6442 80.5582 86.4937 81.0476 86.4951H108.695C109.184 86.4937 109.662 86.6442 110.062 86.9257C110.462 87.2073 110.765 87.6061 110.929 88.0672L115.671 101.345C115.835 101.813 116.141 102.217 116.546 102.502C116.952 102.786 117.436 102.936 117.932 102.93H132.08C132.467 102.925 132.847 102.825 133.187 102.64C133.527 102.454 133.816 102.189 134.03 101.866C134.243 101.543 134.375 101.173 134.414 100.788C134.452 100.403 134.396 100.014 134.25 99.656ZM101.757 71.7492H87.9074C87.5276 71.7481 87.1536 71.656 86.8167 71.4807C86.4798 71.3054 86.1898 71.0519 85.971 70.7415C85.7522 70.4311 85.611 70.0728 85.5591 69.6966C85.5072 69.3204 85.5461 68.9372 85.6727 68.5792L92.5585 49.0132C92.7192 48.5485 93.0209 48.1455 93.4214 47.8602C93.8219 47.575 94.3014 47.4217 94.7931 47.4217C95.2848 47.4217 95.7643 47.575 96.1648 47.8602C96.5654 48.1455 96.867 48.5485 97.0277 49.0132L103.991 68.5792C104.118 68.9372 104.157 69.3204 104.105 69.6966C104.053 70.0728 103.912 70.4311 103.693 70.7415C103.474 71.0519 103.184 71.3054 102.847 71.4807C102.511 71.656 102.137 71.7481 101.757 71.7492V71.7492Z" fill="url(#paint17_linear_1146_30)"/>
<path d="M190.843 102.93H204.94C205.265 102.935 205.589 102.875 205.891 102.754C206.194 102.633 206.469 102.453 206.701 102.225C206.933 101.996 207.118 101.724 207.243 101.423C207.369 101.123 207.434 100.8 207.434 100.475V23.8217C207.431 23.1728 207.17 22.5515 206.71 22.0938C206.25 21.6362 205.628 21.3792 204.979 21.3792H191.844C191.196 21.3792 190.575 21.6366 190.117 22.0946C189.658 22.5527 189.401 23.174 189.401 23.8217V62.7977C189.404 63.3414 189.225 63.8703 188.893 64.3009C188.561 64.7314 188.095 65.0388 187.568 65.1746C187.042 65.3103 186.485 65.2665 185.987 65.0501C185.488 64.8337 185.075 64.4571 184.815 63.98L162.04 22.6395C161.833 22.2494 161.525 21.9227 161.148 21.6939C160.77 21.4651 160.338 21.3429 159.896 21.3403H145.8C145.152 21.3403 144.531 21.5976 144.073 22.0557C143.615 22.5137 143.357 23.135 143.357 23.7828V100.436C143.351 100.761 143.409 101.084 143.528 101.386C143.648 101.689 143.827 101.964 144.054 102.196C144.282 102.429 144.553 102.613 144.853 102.739C145.153 102.865 145.475 102.93 145.8 102.93H158.896C159.544 102.93 160.165 102.673 160.623 102.215C161.081 101.757 161.338 101.135 161.338 100.487V61.5765C161.342 61.0343 161.524 60.5084 161.858 60.0809C162.192 59.6535 162.657 59.3485 163.183 59.2135C163.708 59.0785 164.263 59.1211 164.761 59.3347C165.259 59.5483 165.673 59.9208 165.938 60.3942L188.713 101.631C188.917 102.02 189.223 102.346 189.598 102.575C189.974 102.804 190.404 102.926 190.843 102.93V102.93Z" fill="url(#paint18_linear_1146_30)"/>
<path d="M331.261 37.3724H355.698C355.991 37.4058 356.287 37.3762 356.567 37.2858C356.847 37.1954 357.105 37.0462 357.323 36.8481C357.54 36.65 357.713 36.4077 357.83 36.1374C357.946 35.8671 358.004 35.575 357.998 35.2807V23.7957C358.001 23.4977 357.942 23.2023 357.823 22.9286C357.705 22.655 357.531 22.4092 357.312 22.2072C357.092 22.0051 356.833 21.8513 356.551 21.7557C356.269 21.6601 355.969 21.6248 355.672 21.6521H314.943C315.878 25.6279 315.965 29.7564 315.197 33.7681C314.429 37.7798 312.824 41.5844 310.486 44.9337V100.513C310.571 101.196 310.902 101.824 311.416 102.28C311.93 102.737 312.592 102.991 313.28 102.995H355.698C356.012 102.983 356.321 102.91 356.607 102.779C356.892 102.648 357.149 102.461 357.363 102.231C357.576 102 357.742 101.73 357.851 101.435C357.96 101.141 358.01 100.827 357.998 100.513V89.0286C358.01 88.7165 357.96 88.4052 357.851 88.1127C357.741 87.8202 357.574 87.5525 357.36 87.3251C357.146 87.0977 356.889 86.9153 356.604 86.7884C356.318 86.6615 356.011 86.5927 355.698 86.5861H331.261C330.943 86.5895 330.628 86.5304 330.334 86.4121C330.039 86.2938 329.771 86.1187 329.544 85.8967C329.317 85.6747 329.136 85.4102 329.012 85.1183C328.887 84.8264 328.821 84.5129 328.818 84.1955V72.5937C328.828 71.9515 329.09 71.3388 329.546 70.8871C330.003 70.4353 330.618 70.1805 331.261 70.1772H354.49C354.797 70.1743 355.101 70.1088 355.382 69.9848C355.662 69.8608 355.915 69.6808 356.124 69.4559C356.333 69.231 356.495 68.9658 356.598 68.6766C356.701 68.3874 356.744 68.0801 356.725 67.7736V56.2887C356.746 55.976 356.705 55.6622 356.603 55.3656C356.502 55.0689 356.343 54.7954 356.135 54.5609C355.927 54.3264 355.675 54.1355 355.392 53.9994C355.11 53.8634 354.803 53.7848 354.49 53.7683H331.261C330.948 53.7804 330.637 53.7303 330.345 53.6208C330.052 53.5113 329.784 53.3447 329.557 53.1306C329.33 52.9166 329.147 52.6594 329.02 52.374C328.893 52.0887 328.825 51.7809 328.818 51.4687V40.1007C328.817 39.4248 329.066 38.7725 329.517 38.2689C329.968 37.7653 330.589 37.4461 331.261 37.3724V37.3724Z" fill="url(#paint19_linear_1146_30)"/>
<path d="M313.474 27.5764C313.472 22.724 312.176 17.96 309.72 13.7753C307.263 9.59071 303.735 6.13694 299.499 3.77008C295.263 1.40322 290.473 0.208915 285.621 0.310276C280.77 0.411637 276.033 1.805 271.9 4.34673L272.043 4.25578C265.906 7.77752 261.389 13.5598 259.459 20.367C257.528 27.1743 258.336 34.4666 261.711 40.686C265.085 46.9053 270.758 51.5583 277.517 53.6509C284.276 55.7434 291.586 55.1094 297.884 51.8844L299.495 50.988L299.3 51.0919C303.546 48.7929 307.099 45.4001 309.591 41.2653C312.083 37.1304 313.424 32.4041 313.474 27.5764V27.5764ZM304.601 42.3873C305.28 41.5626 305.905 40.6946 306.472 39.7889C305.905 40.6946 305.28 41.5626 304.601 42.3873V42.3873ZM306.745 36.5539C307.004 35.9692 307.251 35.3846 307.459 34.774C307.251 35.3716 307.004 35.9692 306.745 36.5539V36.5539ZM310.07 27.5764C310.048 30.1335 309.609 32.6698 308.771 35.0858C310.618 29.8067 310.512 24.0404 308.472 18.8328C309.559 21.6184 310.102 24.5865 310.07 27.5764V27.5764ZM308.771 27.5764C308.771 28.0311 308.771 28.4729 308.771 28.8756C308.771 28.4209 308.771 27.9792 308.771 27.5764C308.805 22.6029 307.183 17.7596 304.16 13.81C301.138 9.86038 296.886 7.02921 292.077 5.76285C296.886 7.02921 301.138 9.86038 304.16 13.81C307.183 17.7596 308.805 22.6029 308.771 27.5764V27.5764ZM286.477 3.71012C287.088 3.71012 287.698 3.71012 288.296 3.81405C287.698 3.81405 287.088 3.72311 286.477 3.71012C280.968 3.6561 275.612 5.52102 271.328 8.98487C275.612 5.52102 280.968 3.6561 286.477 3.71012V3.71012ZM270.003 11.986C269.34 12.6759 268.724 13.4094 268.158 14.1817C268.724 13.4094 269.34 12.6759 270.003 11.986V11.986ZM264.391 18.1702C261.967 23.848 261.878 30.2525 264.144 35.9952C261.878 30.2525 261.967 23.848 264.391 18.1702V18.1702ZM286.022 54.4698C278.832 54.4183 271.956 51.517 266.902 46.4022C261.848 41.2875 259.029 34.377 259.064 27.1867V27.1867C259.029 34.377 261.848 41.2875 266.902 46.4022C271.956 51.517 278.832 54.4183 286.022 54.4698V54.4698ZM263.793 27.1867C263.834 23.4259 264.831 19.7374 266.69 16.4683C269.223 12.2403 273.076 8.96214 277.655 7.13857C282.234 5.31501 287.285 5.04713 292.032 6.37617C296.778 7.70522 300.955 10.5575 303.921 14.4939C306.888 18.4302 308.477 23.2324 308.446 28.1611C308.413 31.7243 307.522 35.227 305.848 38.3728C303.404 42.7082 299.59 46.1098 295.004 48.0441C290.419 49.9784 285.321 50.336 280.51 49.0609C275.699 47.7858 271.448 44.95 268.423 40.9983C265.397 37.0466 263.769 32.2024 263.793 27.2256V27.1867ZM296.078 48.9352C298.804 47.6953 301.275 45.9595 303.367 43.8164C301.272 45.9456 298.801 47.668 296.078 48.8963V48.9352Z" fill="url(#paint20_linear_1146_30)"/>
<path d="M297.325 31.1752C297.245 30.4666 297.07 29.7719 296.806 29.1095C296.566 28.5376 296.252 28.0002 295.87 27.5115C295.612 27.1755 295.325 26.8625 295.013 26.5761C294.514 26.1496 293.979 25.7671 293.415 25.4328C292.994 25.1852 292.56 24.9597 292.116 24.7572C291.726 24.5753 291.31 24.4064 290.881 24.2375C290.102 23.9127 289.27 23.6139 288.374 23.3281C288.071 23.2526 287.771 23.1615 287.477 23.0552C287.218 22.9589 286.953 22.8765 286.685 22.8084V19.0147C287.484 19.1644 288.271 19.3773 289.036 19.6513C289.752 19.901 290.45 20.1961 291.128 20.5348C291.829 20.8599 292.506 21.2332 293.155 21.6521L296.78 14.8833L294.831 13.9608C294.129 13.636 293.376 13.3112 292.57 13.0124C291.765 12.7136 290.933 12.4408 290.063 12.2069C289.169 11.9746 288.263 11.7967 287.347 11.6743V7.3739H283.957V11.6483C282.665 11.7672 281.399 12.0826 280.202 12.5837C279.084 13.0624 278.063 13.7404 277.188 14.5845C276.287 15.4318 275.566 16.4527 275.07 17.5856C274.537 18.861 274.267 20.2309 274.278 21.6131C274.251 22.5997 274.391 23.5837 274.693 24.5233C274.968 25.3615 275.41 26.1351 275.992 26.7969C276.683 27.5138 277.48 28.1187 278.357 28.5898C279.452 29.1788 280.595 29.6743 281.774 30.0709C282.644 30.3957 283.528 30.6685 284.372 30.9024V34.6181C283.354 34.4609 282.353 34.2041 281.384 33.8516C280.498 33.5334 279.63 33.1646 278.786 32.7473C277.944 32.3383 277.129 31.8784 276.343 31.3701L272.719 38.5547C274.353 39.5231 276.097 40.2908 277.915 40.8413C279.802 41.448 281.749 41.8487 283.723 42.0365V47.2333H287.114V42.1275L288.088 42.0365H288.244L289.036 41.9196L289.855 41.7507H289.972L290.881 41.5039C292.063 41.1591 293.169 40.5949 294.142 39.8409C294.851 39.2938 295.462 38.6305 295.948 37.8791C296.139 37.5956 296.313 37.3005 296.468 36.9956V36.8657C296.592 36.6171 296.7 36.3611 296.793 36.0992V36.0992C296.793 36.0992 296.793 36.0992 296.793 36.0342C296.88 35.7697 296.954 35.5008 297.014 35.2287C297.019 35.1987 297.019 35.1678 297.014 35.1378V34.8909C297.014 34.6831 297.091 34.4622 297.13 34.2284C297.169 33.9945 297.13 34.1244 297.13 34.0724C297.137 34.0033 297.137 33.9337 297.13 33.8646C297.13 33.6047 297.13 33.3319 297.13 33.0591C297.13 32.9811 297.13 32.9032 297.13 32.8252C297.228 32.2795 297.293 31.7286 297.325 31.1752V31.1752ZM284.528 22.0808C284.05 21.9239 283.608 21.6721 283.229 21.3403C283.091 21.2058 282.982 21.0438 282.911 20.8648C282.839 20.6857 282.806 20.4936 282.813 20.3009C282.813 19.4824 283.385 19.0017 284.528 18.8848V22.0808ZM288.062 34.3193C287.627 34.5835 287.129 34.7229 286.62 34.722V31.604C287.096 31.791 287.535 32.0591 287.919 32.3965C288.078 32.5188 288.207 32.6764 288.294 32.8567C288.382 33.037 288.427 33.2352 288.426 33.4358C288.432 33.5987 288.403 33.761 288.34 33.9114C288.277 34.0617 288.182 34.1965 288.062 34.3063V34.3193Z" fill="url(#paint21_linear_1146_30)"/>
<defs>
<linearGradient id="paint0_linear_1146_30" x1="0.878174" y1="143.95" x2="36.5503" y2="143.95" gradientUnits="userSpaceOnUse">
<stop stop-color="#FC5453"/>
<stop offset="1" stop-color="#DB2C2C"/>
</linearGradient>
<linearGradient id="paint1_linear_1146_30" x1="45.5969" y1="143.925" x2="82.4682" y2="143.925" gradientUnits="userSpaceOnUse">
<stop stop-color="#FC5453"/>
<stop offset="1" stop-color="#DB2C2C"/>
</linearGradient>
<linearGradient id="paint2_linear_1146_30" x1="94.0525" y1="143.912" x2="122.167" y2="143.912" gradientUnits="userSpaceOnUse">
<stop stop-color="#FC5453"/>
<stop offset="1" stop-color="#DB2C2C"/>
</linearGradient>
<linearGradient id="paint3_linear_1146_30" x1="133.029" y1="144.08" x2="163.027" y2="144.08" gradientUnits="userSpaceOnUse">
<stop stop-color="#FC5453"/>
<stop offset="1" stop-color="#DB2C2C"/>
</linearGradient>
<linearGradient id="paint4_linear_1146_30" x1="172.537" y1="143.931" x2="209.409" y2="143.931" gradientUnits="userSpaceOnUse">
<stop stop-color="#FC5453"/>
<stop offset="1" stop-color="#DB2C2C"/>
</linearGradient>
<linearGradient id="paint5_linear_1146_30" x1="188.182" y1="117.623" x2="200.006" y2="117.623" gradientUnits="userSpaceOnUse">
<stop stop-color="#FC5453"/>
<stop offset="1" stop-color="#DB2C2C"/>
</linearGradient>
<linearGradient id="paint6_linear_1146_30" x1="220.517" y1="143.925" x2="246.31" y2="143.925" gradientUnits="userSpaceOnUse">
<stop stop-color="#FC5453"/>
<stop offset="1" stop-color="#DB2C2C"/>
</linearGradient>
<linearGradient id="paint7_linear_1146_30" x1="254.332" y1="143.937" x2="289.973" y2="143.937" gradientUnits="userSpaceOnUse">
<stop stop-color="#FC5453"/>
<stop offset="1" stop-color="#DB2C2C"/>
</linearGradient>
<linearGradient id="paint8_linear_1146_30" x1="300.859" y1="143.931" x2="308.759" y2="143.931" gradientUnits="userSpaceOnUse">
<stop stop-color="#FC5453"/>
<stop offset="1" stop-color="#DB2C2C"/>
</linearGradient>
<linearGradient id="paint9_linear_1146_30" x1="319.854" y1="143.931" x2="356.725" y2="143.931" gradientUnits="userSpaceOnUse">
<stop stop-color="#FC5453"/>
<stop offset="1" stop-color="#DB2C2C"/>
</linearGradient>
<linearGradient id="paint10_linear_1146_30" x1="224.557" y1="105.217" x2="225.207" y2="105.217" gradientUnits="userSpaceOnUse">
<stop stop-color="#FC5453"/>
<stop offset="1" stop-color="#DB2C2C"/>
</linearGradient>
<linearGradient id="paint11_linear_1146_30" x1="227.951" y1="78.3731" x2="288.634" y2="78.3731" gradientUnits="userSpaceOnUse">
<stop stop-color="#FC5453"/>
<stop offset="1" stop-color="#DB2C2C"/>
</linearGradient>
<linearGradient id="paint12_linear_1146_30" x1="221.804" y1="80.0027" x2="269.159" y2="80.0027" gradientUnits="userSpaceOnUse">
<stop stop-color="#FC5453"/>
<stop offset="1" stop-color="#DB2C2C"/>
</linearGradient>
<linearGradient id="paint13_linear_1146_30" x1="216.002" y1="67.1928" x2="259.402" y2="67.1928" gradientUnits="userSpaceOnUse">
<stop stop-color="#FC5453"/>
<stop offset="1" stop-color="#DB2C2C"/>
</linearGradient>
<linearGradient id="paint14_linear_1146_30" x1="214.079" y1="65.9577" x2="256.907" y2="65.9577" gradientUnits="userSpaceOnUse">
<stop stop-color="#FC5453"/>
<stop offset="1" stop-color="#DB2C2C"/>
</linearGradient>
<linearGradient id="paint15_linear_1146_30" x1="210.71" y1="62.5657" x2="262" y2="62.5657" gradientUnits="userSpaceOnUse">
<stop stop-color="#FC5453"/>
<stop offset="1" stop-color="#DB2C2C"/>
</linearGradient>
<linearGradient id="paint16_linear_1146_30" x1="2.16016" y1="62.0015" x2="49.3601" y2="62.0015" gradientUnits="userSpaceOnUse">
<stop stop-color="#FC5453"/>
<stop offset="1" stop-color="#DB2C2C"/>
</linearGradient>
<linearGradient id="paint17_linear_1146_30" x1="55.2517" y1="62.151" x2="134.425" y2="62.151" gradientUnits="userSpaceOnUse">
<stop stop-color="#FC5453"/>
<stop offset="1" stop-color="#DB2C2C"/>
</linearGradient>
<linearGradient id="paint18_linear_1146_30" x1="143.357" y1="62.1316" x2="207.434" y2="62.1316" gradientUnits="userSpaceOnUse">
<stop stop-color="#FC5453"/>
<stop offset="1" stop-color="#DB2C2C"/>
</linearGradient>
<linearGradient id="paint19_linear_1146_30" x1="310.486" y1="62.3153" x2="358" y2="62.3153" gradientUnits="userSpaceOnUse">
<stop stop-color="#FC5453"/>
<stop offset="1" stop-color="#DB2C2C"/>
</linearGradient>
<linearGradient id="paint20_linear_1146_30" x1="258.43" y1="27.5812" x2="313.474" y2="27.5812" gradientUnits="userSpaceOnUse">
<stop stop-color="#FC5453"/>
<stop offset="1" stop-color="#DB2C2C"/>
</linearGradient>
<linearGradient id="paint21_linear_1146_30" x1="272.719" y1="27.3018" x2="297.325" y2="27.3018" gradientUnits="userSpaceOnUse">
<stop stop-color="#FC5453"/>
<stop offset="1" stop-color="#DB2C2C"/>
</linearGradient>
</defs>
</svg>
